{"asset":{"version":"2.0","generator":"VECTARY"},"nodes":[{"translation":[0,0.027999999999999997,5.3290705182007515e-18],"scale":[200,200,200],"rotation":[0,0,0,1],"name":"Torus","mesh":0},{"translation":[-0.000030348,0.02,3.552713678800501e-18],"scale":[0.001,0.001,0.001],"rotation":[-0.7071067811865475,0,0,0.7071067811865476],"name":"Cylinder","mesh":1},{"translation":[0,0.005,8.881784197001253e-19],"scale":[0.001,0.001,0.001],"rotation":[-0.7071067811865475,0,0,0.7071067811865476],"name":"Sphere","mesh":2}],"materials":[{"pbrMetallicRoughness":{"baseColorFactor":[0.8122414898984895,0.006584957382581685,0.006584957382581685,1],"metallicFactor":0,"roughnessFactor":0.2},"name":"Amelia","emissiveFactor":[0,0,0],"extensions":{},"alphaMode":"OPAQUE","doubleSided":false},{"pbrMetallicRoughness":{"baseColorFactor":[0.000005077051900661759,0.000023328004666098932,0.001433134589671864,1],"metallicFactor":0,"roughnessFactor":0.2},"name":"Spring","emissiveFactor":[0,0,0],"extensions":{},"alphaMode":"OPAQUE","doubleSided":false},{"pbrMetallicRoughness":{"baseColorFactor":[0,0.000005077051900661759,0.0008046584995130583,1],"metallicFactor":0,"roughnessFactor":0.2},"name":"Stanley","emissiveFactor":[0,0,0],"extensions":{},"alphaMode":"OPAQUE","doubleSided":false}],"meshes":[{"primitives":[{"mode":4,"attributes":{"POSITION":1,"NORMAL":2,"TEXCOORD_0":3},"material":0,"indices":0}]},{"primitives":[{"mode":4,"attributes":{"POSITION":5,"NORMAL":6,"TEXCOORD_0":7},"material":1,"indices":4}]},{"primitives":[{"mode":4,"attributes":{"POSITION":9,"NORMAL":10,"TEXCOORD_0":11},"material":2,"indices":8}]}],"accessors":[{"bufferView":0,"byteOffset":0,"componentType":5125,"count":6144,"type":"SCALAR"},{"bufferView":1,"byteOffset":0,"componentType":5126,"count":1089,"max":[45,45,10],"min":[-45,-45,0],"type":"VEC3"},{"bufferView":2,"byteOffset":0,"componentType":5126,"count":1089,"type":"VEC3"},{"bufferView":3,"byteOffset":0,"componentType":5126,"count":1089,"type":"VEC2"},{"bufferView":4,"byteOffset":0,"componentType":5125,"count":6912,"type":"SCALAR"},{"bufferView":5,"byteOffset":0,"componentType":5126,"count":1302,"max":[5,5,35],"min":[-5,-5,0],"type":"VEC3"},{"bufferView":6,"byteOffset":0,"componentType":5126,"count":1302,"type":"VEC3"},{"bufferView":7,"byteOffset":0,"componentType":5126,"count":1302,"type":"VEC2"},{"bufferView":8,"byteOffset":0,"componentType":5125,"count":11904,"type":"SCALAR"},{"bufferView":9,"byteOffset":0,"componentType":5126,"count":2143,"max":[5,5,10],"min":[-5,-5,0],"type":"VEC3"},{"bufferView":10,"byteOffset":0,"componentType":5126,"count":2143,"type":"VEC3"},{"bufferView":11,"byteOffset":0,"componentType":5126,"count":2143,"type":"VEC2"}],"bufferViews":[{"buffer":0,"byteOffset":0,"byteLength":24576,"target":34963},{"buffer":0,"byteOffset":24576,"byteLength":13068,"target":34962},{"buffer":0,"byteOffset":37644,"byteLength":13068,"target":34962},{"buffer":0,"byteOffset":50712,"byteLength":8712,"target":34962},{"buffer":0,"byteOffset":59424,"byteLength":27648,"target":34963},{"buffer":0,"byteOffset":87072,"byteLength":15624,"target":34962},{"buffer":0,"byteOffset":102696,"byteLength":15624,"target":34962},{"buffer":0,"byteOffset":118320,"byteLength":10416,"target":34962},{"buffer":0,"byteOffset":128736,"byteLength":47616,"target":34963},{"buffer":0,"byteOffset":176352,"byteLength":25716,"target":34962},{"buffer":0,"byteOffset":202068,"byteLength":25716,"target":34962},{"buffer":0,"byteOffset":227784,"byteLength":17144,"target":34962}],"scene":0,"scenes":[{"nodes":[0,1,2],"name":"Project Name"}],"extensionsUsed":["KHR_texture_transform"],"buffers":[{"byteLength":244928,"uri":"Name.bin"}]}
